<svg width="24" height="28" viewBox="0 0 24 28" fill="none" xmlns="http://www.w3.org/2000/svg">
<path id="shield" fill-rule="evenodd" clip-rule="evenodd" d="M23.1985 3.88611C22.1284 2.84568 13.5615 0 11.9998 0C10.438 0 1.87257 2.84568 0.800942 3.88611C-0.0514864 4.71432 -0.0393087 5.3539 0.0276679 8.89221C0.0550674 10.3276 0.0915997 12.2817 0.0915997 14.9874C0.0915997 24.4293 11.6618 27.9337 11.779 27.9676C11.8506 27.9897 11.9252 28 11.9998 28C12.0743 28 12.1474 27.9897 12.2205 27.9676C12.3377 27.9337 23.9094 24.4293 23.9094 14.9874C23.9094 12.2891 23.9459 10.3379 23.9733 8.904C24.0388 5.35684 24.0494 4.71579 23.1985 3.88611Z" fill="#00CE6A"/>
</svg>
